<mxfile host="app.diagrams.net" modified="2023-11-26T14:29:44.464Z" agent="Mozilla/5.0 (Windows NT 10.0; Win64; x64) AppleWebKit/537.36 (KHTML, like Gecko) Chrome/116.0.5845.664 YaBrowser/23.9.5.664 Yowser/2.5 Safari/537.36" version="22.1.4" etag="vJsQrne29p66UdR34fyf" type="github">
  <diagram name="Страница — 1" id="mkixYPDFQVvYS5jOnrR4">
    <mxGraphModel>
      <root>
        <mxCell id="0" />
        <mxCell id="1" parent="0" />
      </root>
    </mxGraphModel>
  </diagram>
</mxfile>
